<mxfile host="app.diagrams.net" modified="2021-09-20T09:48:19.288Z" agent="5.0 (Macintosh; Intel Mac OS X 10_15_7) AppleWebKit/537.36 (KHTML, like Gecko) Chrome/93.0.4577.82 Safari/537.36 Edg/93.0.961.52" etag="L8PNkSgItQFi7UH5hius" version="15.2.9" type="github">
  <diagram id="RLMSA8aWEkdlNHtkEmKV" name="第 1 页">
    <mxGraphModel dx="895" dy="597" grid="1" gridSize="10" guides="1" tooltips="1" connect="1" arrows="1" fold="1" page="1" pageScale="1" pageWidth="827" pageHeight="1169" math="0" shadow="0">
      <root>
        <mxCell id="0" />
        <mxCell id="1" parent="0" />
        <mxCell id="YboemyCjy17NQr9Hy9Y8-16" value="" style="edgeStyle=orthogonalEdgeStyle;rounded=0;orthogonalLoop=1;jettySize=auto;html=1;startArrow=classic;startFill=1;" edge="1" parent="1">
          <mxGeometry relative="1" as="geometry">
            <mxPoint x="410" y="350" as="sourcePoint" />
            <mxPoint x="410" y="390" as="targetPoint" />
            <Array as="points">
              <mxPoint x="410" y="350" />
            </Array>
          </mxGeometry>
        </mxCell>
        <mxCell id="YboemyCjy17NQr9Hy9Y8-2" value="" style="rounded=0;whiteSpace=wrap;html=1;fillColor=#ffe6cc;strokeColor=none;" vertex="1" parent="1">
          <mxGeometry x="170" y="280" width="490" height="60" as="geometry" />
        </mxCell>
        <mxCell id="YboemyCjy17NQr9Hy9Y8-3" value="异步任务捞取" style="rounded=1;whiteSpace=wrap;html=1;fillColor=#d5e8d4;strokeColor=none;" vertex="1" parent="1">
          <mxGeometry x="270" y="290" width="106" height="40" as="geometry" />
        </mxCell>
        <mxCell id="YboemyCjy17NQr9Hy9Y8-4" value="异步任务重置" style="rounded=1;whiteSpace=wrap;html=1;fillColor=#d5e8d4;strokeColor=none;" vertex="1" parent="1">
          <mxGeometry x="400" y="290" width="106" height="40" as="geometry" />
        </mxCell>
        <mxCell id="YboemyCjy17NQr9Hy9Y8-5" value="异步任务监控" style="rounded=1;whiteSpace=wrap;html=1;fillColor=#d5e8d4;strokeColor=none;" vertex="1" parent="1">
          <mxGeometry x="530" y="290" width="106" height="40" as="geometry" />
        </mxCell>
        <mxCell id="YboemyCjy17NQr9Hy9Y8-6" value="任务调度" style="text;html=1;strokeColor=none;fillColor=none;align=center;verticalAlign=middle;whiteSpace=wrap;rounded=0;" vertex="1" parent="1">
          <mxGeometry x="190" y="300" width="50" height="20" as="geometry" />
        </mxCell>
        <mxCell id="YboemyCjy17NQr9Hy9Y8-7" value="" style="rounded=0;whiteSpace=wrap;html=1;fillColor=#ffe6cc;strokeColor=none;" vertex="1" parent="1">
          <mxGeometry x="169" y="400" width="490" height="60" as="geometry" />
        </mxCell>
        <mxCell id="YboemyCjy17NQr9Hy9Y8-12" value="" style="edgeStyle=orthogonalEdgeStyle;rounded=0;orthogonalLoop=1;jettySize=auto;html=1;" edge="1" parent="1" source="YboemyCjy17NQr9Hy9Y8-8" target="YboemyCjy17NQr9Hy9Y8-10">
          <mxGeometry relative="1" as="geometry" />
        </mxCell>
        <mxCell id="YboemyCjy17NQr9Hy9Y8-13" value="命令注册" style="edgeLabel;html=1;align=center;verticalAlign=middle;resizable=0;points=[];labelBackgroundColor=none;" vertex="1" connectable="0" parent="YboemyCjy17NQr9Hy9Y8-12">
          <mxGeometry x="0.0541" y="2" relative="1" as="geometry">
            <mxPoint x="5" y="-8" as="offset" />
          </mxGeometry>
        </mxCell>
        <mxCell id="YboemyCjy17NQr9Hy9Y8-8" value="异步命令" style="rounded=1;whiteSpace=wrap;html=1;fillColor=#d5e8d4;strokeColor=none;" vertex="1" parent="1">
          <mxGeometry x="236" y="410" width="70" height="40" as="geometry" />
        </mxCell>
        <mxCell id="YboemyCjy17NQr9Hy9Y8-14" value="" style="edgeStyle=orthogonalEdgeStyle;rounded=0;orthogonalLoop=1;jettySize=auto;html=1;" edge="1" parent="1" source="YboemyCjy17NQr9Hy9Y8-10" target="YboemyCjy17NQr9Hy9Y8-11">
          <mxGeometry relative="1" as="geometry" />
        </mxCell>
        <mxCell id="YboemyCjy17NQr9Hy9Y8-15" value="命令执行" style="edgeLabel;html=1;align=center;verticalAlign=middle;resizable=0;points=[];labelBackgroundColor=none;" vertex="1" connectable="0" parent="YboemyCjy17NQr9Hy9Y8-14">
          <mxGeometry x="0.1053" relative="1" as="geometry">
            <mxPoint x="4" y="-10" as="offset" />
          </mxGeometry>
        </mxCell>
        <mxCell id="YboemyCjy17NQr9Hy9Y8-10" value="异步命令框架" style="rounded=1;whiteSpace=wrap;html=1;fillColor=#f8cecc;strokeColor=none;" vertex="1" parent="1">
          <mxGeometry x="380" y="410" width="80" height="40" as="geometry" />
        </mxCell>
        <mxCell id="YboemyCjy17NQr9Hy9Y8-11" value="异步命令执行器" style="rounded=1;whiteSpace=wrap;html=1;fillColor=#d5e8d4;strokeColor=none;" vertex="1" parent="1">
          <mxGeometry x="536" y="410" width="100" height="40" as="geometry" />
        </mxCell>
        <mxCell id="YboemyCjy17NQr9Hy9Y8-17" value="应用进程" style="text;html=1;strokeColor=none;fillColor=none;align=center;verticalAlign=middle;whiteSpace=wrap;rounded=0;" vertex="1" parent="1">
          <mxGeometry x="180" y="420" width="50" height="20" as="geometry" />
        </mxCell>
        <mxCell id="YboemyCjy17NQr9Hy9Y8-18" value="" style="rounded=0;whiteSpace=wrap;html=1;fillColor=#ffe6cc;strokeColor=none;" vertex="1" parent="1">
          <mxGeometry x="170" y="520" width="490" height="60" as="geometry" />
        </mxCell>
        <mxCell id="YboemyCjy17NQr9Hy9Y8-19" value="DB" style="text;html=1;strokeColor=none;fillColor=none;align=center;verticalAlign=middle;whiteSpace=wrap;rounded=0;" vertex="1" parent="1">
          <mxGeometry x="187" y="540" width="50" height="20" as="geometry" />
        </mxCell>
        <mxCell id="YboemyCjy17NQr9Hy9Y8-20" value="分布式锁" style="rounded=1;whiteSpace=wrap;html=1;fillColor=#d5e8d4;strokeColor=none;" vertex="1" parent="1">
          <mxGeometry x="301" y="530" width="70" height="40" as="geometry" />
        </mxCell>
        <mxCell id="YboemyCjy17NQr9Hy9Y8-21" value="命令持久化" style="rounded=1;whiteSpace=wrap;html=1;fillColor=#d5e8d4;strokeColor=none;" vertex="1" parent="1">
          <mxGeometry x="467" y="530" width="70" height="40" as="geometry" />
        </mxCell>
        <mxCell id="YboemyCjy17NQr9Hy9Y8-22" value="" style="edgeStyle=orthogonalEdgeStyle;rounded=0;orthogonalLoop=1;jettySize=auto;html=1;startArrow=classic;startFill=1;" edge="1" parent="1">
          <mxGeometry relative="1" as="geometry">
            <mxPoint x="410" y="465.9999999999999" as="sourcePoint" />
            <mxPoint x="410" y="505.9999999999999" as="targetPoint" />
            <Array as="points">
              <mxPoint x="410" y="466" />
            </Array>
          </mxGeometry>
        </mxCell>
      </root>
    </mxGraphModel>
  </diagram>
</mxfile>
